<?xml version="1.0" encoding="UTF-8"?>
<svg version="1.1" viewBox="0 0 2000 2000" width="1280" height="1280" xmlns="http://www.w3.org/2000/svg">
<path transform="translate(1298)" d="m0 0h24l4 8-1 9-5 6-3 3v225l13 12 35 35 2 1h241l8-7 9-1 7 3 4 4 2 4v8l-3 6-6 5-3 1h-7l-6-3-6-6h-241l-10 36-8 29-4 4-35 9-29 8h-2l-3 12-15 45-11 35-12 36-14 44-12 36-14 44-12 36-10 32-7 21v6l6 10 1 3v9l-4 10-3 3 1 4 11 11 8 7 15 14 31 29 12 11 15 14 39 36 5 5 3 1 2-4 7-6 7-3h14l4 1 10-8 11-9 16-13 17-14 33-27 34-28 11-9 16-13 6-5-1-12-7-50 1-5 14-11 15-12 20-15 5-4 4-10 13-50 23-86 2-7-1-6-4-8 1-7 4-6 6-4h10l6 4 4 5 1 2v9l-7 9-6 1-2 9-13 49-11 42-12 45v5l47 19 19 8 2 2 10 72v3l16 4 60 18 8 2 10-5 7 1 6 4 4 5 1 2v7l-3 6-7 6h-11l-5-3-5-6-2-4-47-14-36-11-5 1-11 8-14 11-10 8-13 10-7 5-65-26-5 2-33 27-16 13-17 14-11 9-16 13-13 11-10 8-17 14-15 12v11l-3 8-6 9-3 3 13 12 12 11 11 10-1 9-13 57-13 58-4 17 8-3h13l10 5 7 8 17-1 171-14 5-1 2-4 12-18 13-19 10-15h16l54 4 7 1 2-5 4-2 2-4 11-11 8-7 9-9 8-7 14-14 6-5 1-5v-6l5-8 7-4h8l7 4 4 5 1 2v8l-4 7-6 4-9 1-4 1-13 12-9 9h-2l-2 4-8 7-23 23h-2v2l-5 4 1 5 22 45 7 15v6l-8 11-26 38-5 8 2 18 12 83 9 60 10 10 2 5-1 7-6 8-5 3h-8l-6-3-4-5-1-2v-12l5-6v-8l-11-72-9-62-2-16-33-3-41-3-10-19-15-31-4-9v-3l-28 2-161 13-4 4-7 8-8 4-11 1-10-3-8-7-3-3v8l-15 67-14 62-10 44-1 8 5 2 5 6 4 10v9l-2 5 1 5 12 16 32 42 9 12 16 21 15 20 10 13 15 20 14 18 12 16 16 21 12 16 32 42 15 20 14 18 24 32v2l20-7 40-15 5-1 9 7 11 9 12 10 11 9 11 8 3 1 73 4h14l7-6 2-1h9l7 4 4 7v9l-4 6-5 4-3 1h-8l-7-4-3-5-25-2-55-3-9 49-3 18 1 5 18 13 19 14 18 13 11 8 10-1 8 3 6 7 1 9-3 6-7 6-8 1-7-3-5-6-3-11-38-28-18-13-14-10-7 1-54 20-2 1h-6l-13-11-10-8-13-11-14-11-11-10 1-11 9-53 1-6-10-13-14-18-14-19-10-13-16-21-15-20-14-18-12-16-16-21-12-16-10-13-12-16-13-17-16-21-12-16-10-13-12-16-16-21-18-24v-2h-14l-10-5-6-7-3-7v-12l1-3-25 8-67 21-179 56-11 3-1 9-6 8-7 6v257l52 26 7-1 65-28h3l3-10 5-5 3-1h10l7 4 3 5 1 9-3 6-7 6-2 1-9-1-5-2-5 1-44 19-21 9h-2l1 3 3 55 1 16-8 6-20 13-31 21h-2l7 56 4 31 5 5 5 6 1 3v8l-6 9h-20l-5-10 1-9 4-6 1-1v-8l-10-79-3-3-60-30-5-3-4-64v-18l11-8 26-17 20-13v-257l-7-6-6-9-6-10-8-7-7-7-2-1v-2l-4-2-13-13-8-7-17-16-8-7-15-14-9-9-8-7-8-8-8-7-12-11-13-12-10-10-8-7-16-15-6-6v13l-3 9-7 8-9 4-10 1-9-1-14 12-11 10-11 9-14 13-11 9-14 13-11 9-12 11-8 7-10 9-11 9-14 13-11 9-13 12-11 9-13 12-11 9-14 13-11 9-7 7-11 9-1 4 10 48 4 7 59 59 12 1 6 4 4 6v9l-5 8-5 3-6 1-8-3-5-5-2-5v-9l-59-59-4 1-13 13-8 7-13 12-9 7 2 19 14 96 7 46v2l5 2 5 5 1 2v10l-6 8-6 3-9-1-6-4-4-6v-9l4-6 2-2-1-13-16-106-6-41-31-10-38-12-3-4-16-74 2-5 10-10 8-7 14-13 8-7 13-12 5-4 11 3 29 9 33 11 4-1 12-11 11-9 14-13 11-9 13-12 11-9 14-13 11-9 14-13 11-9 13-12 8-7 14-12 10-9 8-7 14-12 12-11 11-9 14-13 10-8 1-16 5-10 7-6 7-3h13l-4-5-8-7-11-11-8-7-26-24-3-3 2-11 20-87 3-10-8 3-9 1-10-3-6-4-6-9-11-1-111-4h-11l-5 5-11 13-14 17-11 13 1 14 15 103 7 47 9 7 3 8-1 7-5 7-7 3h-7l-6-3-4-5-2-4v-7l6-9v-8l-19-126-4-27-70-12-4-2-14-37-11-30-1-2h-122l-10 8-2 1h-7l-6-3-5-6-2-8 3-8 6-5 2-1h10l6 4 4 4h124l5-2 9-11 11-13 18-22 6-7 11 1 66 11 5 2 17 47 5 13 8 1 110 4h16l8-9 8-4 9-1 9 2 8 5 5 5 8-38 16-70 21-92 2-6-7 2h-15l-9-5-6-7-3-8-1-11-13-10-17-12-19-14-17-12-19-14-17-12-19-14-36-26-14-10-13-10-9 1-59 14h-7l-8-8-7-8-16-16-7-8-10-10v-2l-3-1h-22l-118 3-23 1-5 6-3 2-9 1-6-2-5-5-3-6 1-8 4-6 6-4h9l7 4 5 4 138-3 22-1 5-15 11-38 5-16 9-3 66-16h6l10 10 7 8 11 11 7 8 13 13 11-3 52-14 6-2 6-8 5-4h12l6 4 4 7v7l-3 6-7 6-8 1-11-5-9 2-49 13-9 2-2 10-14 46v4l11 7 16 12 36 26 19 14 36 26 19 14 36 26 12 9 6-2 8-1 10 2 8 5 6 8 2 7v9l21-7 64-20 10-3-3-10v-9l4-9 1-6-19-42-18-40-13-29-19-42-17-38-19-42-30-67-16-36-17-37-13-30-4-2-53-8h-6l-20 14-51 35-23 16-24 16-11 8-4 3-2 9-6 7-6 3-9-1-7-6-3-6 1-9 7-8 2-1 16-1 16-10 14-10 24-16 14-10 12-8 22-15 25-17 3-1-6-17-18-46-2-5 1-5 13-16 11-14 14-17 6-7-2-9-16-47-10-28-10-30-15-42-8-3-5-7-1-8 4-8 8-5h8l6 3 5 6 1 3v8l-4 6 2 9 15 43 16 47 13 37 5 15 1 4 24 3 47 7 4 3 16 42 12 30-1 4-13 16-11 14-9 11-8 11 2 5 12 27 13 29 16 36 16 35 13 29 18 40 13 29 14 31 16 36 16 35 26 58 6 14 2 2 10 3 9 6 4 6 3 10 202-63 5 1 4 5 8 7 6 5 4-1 9-6 5-2 4-10 13-41 12-36 32-98 16-50 11-33 14-43 10-31-1-5-46-46 1-5 9-34 9-32-2-5-7-7-8-7-10-10v-2l-4-2-7-8-66-66h-10l-8-5-3-4-1-3v-7l3-7 5-4 2-1h10l6 3 4 5 1 9 1 5 104 104 9-1 26-7 27-7h2v-220l-5-5-3-5v-9zm-664 240-5 5-11 14-13 16-7 9 1 6 16 41 4 8 51 8h6l13-16 22-28-3-9-16-42-4-4zm665 28-49 13-2 2-12 44-2 6v5l37 37 2 3 7-1 46-12 4-2 8-29 6-21v-6l-39-39zm-817 308-41 10-11 3-7 23-9 30 1 4 17 17 7 8 10 10 4 5 18-4 37-9 3-5 14-47v-5l-13-13-7-8-10-10-7-8-1-1zm47 100 1 2zm1026 7-11 9-18 14-15 11 1 15 6 42 4 3 44 18 2 1h6l13-11 26-20 4-3-3-25-4-29-2-4-19-8-32-13zm-456 69-128 40-42 13-31 10-67 21-58 18-7 3-15 65-20 88-22 97-12 54-8 34 1 7 13 12 12 11 17 16 12 11 13 12 7 7 8 7 7 7 8 7 13 12 15 14 31 29 26 24 17 16 15 14 12 11 13 12 7 6 5-2 9-4 6-1 10 3 7 4 9-2 66-21 118-37 64-20 42-13 8-3 7-28 21-93 16-71 22-97 11-48 1-7-11-11-8-7-9-9-8-7-8-8-8-7-24-22-7-7-8-7-17-16-8-7-13-12-9-9-8-7-16-15-8-7-16-15-17-16-10-9-11-7-9-10-7-8-8-8-8-7zm-677 255-9 10-10 13-9 10-7 9-1 1 1 7 17 47 2 2 48 8 8 1 9-10 9-11 14-17 4-5-1-6-15-41-3-7-3-2-48-8zm1208 75-3 3-10 15-9 13-8 12-3 5 17 35 8 16 2 1 55 4 7-9 16-24 8-11 1-6-14-29-9-19-2-2-54-4zm-1247 426-5 5-17 16-8 7-11 10 5 26 7 30 10 4 43 14 4-1 11-11 8-7 12-11 8-7 1-5-9-42-2-10-2-2-26-8-25-8zm1236 207-18 7-32 12-2 5-7 40-1 5v8l8 7 11 9 13 11 11 9 10-3 43-16 2-2 9-51v-5l-9-8-10-8-13-11-12-9zm-665 34-17 12-20 13-9 6 3 54 2 5 46 23 5 1 33-22 11-7 3-2-1-22-2-35-19-10-32-16z" fill="#FEC262"/>
<path transform="translate(1143,744)" d="m0 0h12l9 7 4 7v12l-5 8-5 4-4 2h-11l-9-6-5-6-1-4v-7l5-10 7-6z" fill="#FEFEFE"/>
<path transform="translate(952,1428)" d="m0 0h7l9 5v2l4 2 3 7v8l-4 9-4 5-10 3h-7l-7-3-6-8-2-5v-7l3-8 5-5z" fill="#FEFEFE"/>
<path transform="translate(670,1056)" d="m0 0h11l8 6 5 8 1 3v7l-3 8-5 5-5 2-13 1-8-4-5-7-1-3v-10l5-9 8-6z" fill="#FEFEFE"/>
<path transform="translate(716,1269)" d="m0 0h8l8 5 5 6 2 6v7l-3 8-7 6-7 2-11-1-7-4-4-6-2-10 3-8 5-6z" fill="#FEFEFE"/>
<path transform="translate(870,773)" d="m0 0h12l7 5 5 8 1 3v10l-4 7-7 5-11 2-9-3-7-8-2-5v-9l5-9 8-5z" fill="#FEFEFE"/>
<path transform="translate(1286,1350)" d="m0 0h7l6 3 6 6 3 10-2 11-6 7-9 3h-9l-8-4-6-9v-10l4-9 6-5z" fill="#FEFEFE"/>
<path transform="translate(1360,1126)" d="m0 0h11l6 4 6 9 1 3v10l-3 6-7 6-3 1h-12l-8-4-5-6-2-5v-7l4-10 6-5z" fill="#FEFEFE"/>
<path transform="translate(728,812)" d="m0 0h9l7 4 5 7 2 6v7l-3 8-7 6-9 2h-7l-6-3-7-8-1-4v-7l4-9 4-5z" fill="#FEFEFE"/>
<path transform="translate(1328,905)" d="m0 0 8 1 6 3 6 6 2 5v11l-6 10-7 4-9 1-9-3-5-5-3-5v-13l6-9 6-4z" fill="#FEFEFE"/>
<path transform="translate(565,42)" d="m0 0h8l6 3v2h2v13l-4 4h-14l-6-4-2-5 1-5 5-6z" fill="#FEFEFE"/>
<path transform="translate(1302)" d="m0 0h16l4 9v8l-4 5-10 1-8-3-2-10 3-9z" fill="#FEFEFE"/>
<path transform="translate(1595,485)" d="m0 0 7 1 5 3 1 2v12l-5 5-5 1-8-2-5-3-2-7 4-7 5-4z" fill="#FEFEFE"/>
<path transform="translate(461,442)" d="m0 0 6 2 5 8 1 7-4 5-5 2h-7l-6-2-4-6v-7l7-6z" fill="#FEFEFE"/>
<path transform="translate(975,1975)" d="m0 0h10l5 7v9l-6 7-8 1-8-4-1-2v-11l2-4z" fill="#FEFEFE"/>
<path transform="translate(494,1299)" d="m0 0h7l5 5 2 3v10l-1 2-6 2h-8l-7-2-4-7 1-6 7-6z" fill="#FEFEFE"/>
<path transform="translate(222,1035)" d="m0 0h10l3 2 1 3v11l-2 5-5 3-8-1-6-3-2-5 1-6 2-6z" fill="#FEFEFE"/>
<path transform="translate(215,640)" d="m0 0h5l6 5 1 2v12l-4 5-5 1-7-1-8-9 1-6 4-6z" fill="#FEFEFE"/>
<path transform="translate(1713,1367)" d="m0 0h7l5 5 2 4v8l-5 5-8 1-9-3-3-8 2-7 5-4z" fill="#FEFEFE"/>
<path transform="translate(1732,789)" d="m0 0h8v2l4 1 3 7-1 6-5 8-10-1-7-4-1-2v-7l3-6 3-3z" fill="#FEFEFE"/>
<path transform="translate(626,575)" d="m0 0 9 1 5 7v9l-4 5-3 1h-8l-6-3-3-4v-9l6-5z" fill="#FEFEFE"/>
<path transform="translate(1782,1735)" d="m0 0h6l5 5 2 3v10l-5 5-4 1-8-1-6-5-1-6 3-7z" fill="#FEFEFE"/>
<path transform="translate(1774,983)" d="m0 0h9l5 7v12l-5 3h-10l-6-4-4-4 1-7 7-6z" fill="#FEFEFE"/>
<path transform="translate(1753,1871)" d="m0 0 5 1 3 2 3 4v10l-4 7-1 1h-7l-7-3-3-3-1-8 4-7z" fill="#FEFEFE"/>
<path transform="translate(1116,138)" d="m0 0 8 1 5 5 2 4-1 7-4 5-3 1h-8l-5-2-4-7 2-9z" fill="#FEFEFE"/>
<path transform="translate(438,1803)" d="m0 0h7l4 4 2 4v10l-7 4-13-1-5-7 1-7 7-6z" fill="#FEFEFE"/>
<path transform="translate(1623,294)" d="m0 0 5 1 4 2 2 8-1 7-4 5-7 1-9-3-2-4v-11l4-4z" fill="#FEFEFE"/>
<path transform="translate(1108,1714)" d="m0 0 8 1 4 3 1 5v8l-4 5-2 1h-12l-4-5v-11l5-5z" fill="#FEFEFE"/>
<path transform="translate(541,1650)" d="m0 0 9 2 3 4 1 9-3 5-4 3-9-1-4-1-4-7 1-6 8-7z" fill="#FEFEFE"/>
</svg>
