<?xml version="1.0" encoding="UTF-8"?>
<svg version="1.1" viewBox="0 0 2000 2000" width="1280" height="1280" xmlns="http://www.w3.org/2000/svg">
<path transform="translate(176,36)" d="m0 0h1247l22 2 25 5 18 6 20 10 12 8 13 10 14 12 11 12 11 15 10 17 7 15 8 24 4 21 2 24v691l-2 1h-70l-1-1-1-694-2-17-4-15-7-16-9-14-9-10v-2l-4-2-8-7-16-10-21-8-10-2-11-1h-1253l-19 3-18 7-14 8-13 10-8 8-9 12-8 14-7 19-2 11v936l3 17 6 17 8 15 9 11 8 9 15 11 14 8 18 6 14 3 7 1 587 1 1 6v64l-2 2h-581l-26-2-25-5-20-7-23-12-14-10-11-9-12-11-10-11-12-17-10-18-7-17-5-16-4-17-2-10v-952l7-30 8-21 12-23 12-17 11-12 11-11 17-13 14-9 15-8 19-7 22-5 13-2z" fill="#FDBB5B"/>
<path transform="translate(1780,775)" d="m0 0 4 1 8 12 14 19 12 17 13 18 12 17 13 18 12 17 13 18 12 17 13 18 10 14 13 18 12 17 13 18 12 17 13 18 12 17 9 12v886h-73l-1-48v-93l1-696h-109v836l-3 1h-69l-1-1v-836h-109v836l-9 1h-63l-1-1v-882l4-8 12-16 9-13 10-14 13-18 12-17 13-18 10-14 13-18 12-17 10-14 13-18 40-56 13-18 13-19 10-13zm0 125-11 16-12 17-13 18-12 17-13 18-12 17-10 14-13 18-10 14-3 4v2h221l-2-5-11-15-14-20-13-18-12-17-13-18-24-34-13-18-7-10z" fill="#FDBB5B"/>
<path transform="translate(1162,776)" d="m0 0 4 2 12 16 13 18 14 19 26 36 14 19 26 36 14 19 26 36 14 19 26 36 14 19 26 36 14 19 26 36 14 19 13 18 14 19 10 14 14 19 2 5-15 24-16 26-24 38-16 26-12 19-13 21-15 24-12 19-16 26-24 38-16 26-7 11-2 3-1 426-2 1h-70l-1-1v-446l12-20 14-22 13-21 45-72 12-19 16-26 24-38 13-21 15-24 9-14-1-5-14-19-26-36-14-19-10-14-14-19-13-18-10-14-13-18-14-19-39-54-14-19-13-18-11-15-3-3v188l5 2 10 9 8 9 8 14 4 13 1 6v16l-2 11-4 12-7 12-9 11-12 9-13 6-9 3-14 2-15-1-17-5-12-7-10-9-8-9-8-14-4-13-1-7v-16l3-14 4-10 9-14 11-11 8-6v-187l-52 72-14 19-26 36-14 19-26 36-14 19-10 14-14 19-12 17-14 19-11 15-1 5 9 14 12 19 16 26 24 38 11 18 10 16 12 19 13 21 12 19 30 48 7 11 1 1 88 1 1 2v69l-1 1-44 1h-28v253l-7 1h-65l-1-1-1-280-13-21-12-19-16-26-24-38-16-26-24-38-16-26-24-38-16-26-12-19-13-21-2-3 1-4 10-13 26-36 14-19 26-36 14-19 8-11 13-18 14-19 10-14 12-16 12-17 13-18 12-16 10-14 11-15 26-36 14-19 13-18 14-19 8-11 13-18 14-19 13-18z" fill="#FDBB5B"/>
<path transform="translate(661,364)" d="m0 0h20l13 2 15 5 19 10 23 16 25 17 23 16 24 16 14 10 15 10 23 16 24 16 14 10 12 8 13 9 22 15 19 13 13 10 11 11 7 11 5 11 3 13v18l-4 15-7 14-7 9-6 7-17 12-22 15-16 11-35 24-25 17-48 33-92 63-18 12-16 8-13 4-15 2-18-1-15-3-14-6-12-8-12-11-8-9-7-12-6-16-3-14v-352l4-16 8-17 8-11 5-6h2l1-3 18-13 15-7zm6 72-8 5-4 7-1 17v313l2 12 6 7 7 3 10-1 12-7 14-10 25-17 16-11 22-15 23-16 12-8 35-24 19-13 23-16 12-8 44-30 8-5-5-5-23-16-15-10-47-32-22-15-94-64-22-15-19-13-18-12-3-1z" fill="#FDBB5B"/>
<path transform="translate(401,1418)" d="m0 0h65l7 2v143l-40 1h-25l-8-1v-144z" fill="#FDBB5B"/>
<path transform="translate(401,1709)" d="m0 0h70l2 2v142l-1 1-65 1-7-2v-143z" fill="#FDBB5B"/>
<path transform="translate(255,1600)" d="m0 0h108l1 2v69l-3 2h-106l-1-2v-70z" fill="#FDBB5B"/>
<path transform="translate(510,1600)" d="m0 0h107l1 1v71l-3 1h-105l-1-1v-71z" fill="#FDBB5B"/>
<path transform="translate(1018,1891)" d="m0 0h71l2 1v71l-3 1h-69l-1-1z" fill="#FDBB5B"/>
<path transform="translate(146,327)" d="m0 0h70l2 1v71l-2 1h-70l-1-1v-71z" fill="#FDBB5B"/>
<path transform="translate(146,473)" d="m0 0h71l1 1v70l-1 1h-71l-1-1v-70z" fill="#FDBB5B"/>
<path transform="translate(146,182)" d="m0 0h72v71l-1 1h-71l-1-2v-69z" fill="#FDBB5B"/>
</svg>
